<svg width="21" height="20" viewBox="0 0 21 20" fill="none" xmlns="http://www.w3.org/2000/svg">
<path d="M19.57 7.55391L17.68 6.92391L18.57 5.14391C18.6602 4.9576 18.6904 4.74787 18.6564 4.54368C18.6223 4.33949 18.5258 4.15089 18.38 4.00391L16.25 1.87391C16.1022 1.726 15.9118 1.62812 15.7055 1.59404C15.4993 1.55995 15.2875 1.59139 15.1 1.68391L13.32 2.57391L12.69 0.68391C12.6235 0.486902 12.4972 0.315535 12.3287 0.193658C12.1602 0.07178 11.9579 0.00545392 11.75 0.00390958H8.75C8.54036 0.00336842 8.33585 0.0687285 8.16537 0.190752C7.9949 0.312775 7.86709 0.485289 7.8 0.68391L7.17 2.57391L5.39 1.68391C5.20369 1.59369 4.99397 1.56351 4.78978 1.59755C4.58558 1.63158 4.39699 1.72814 4.25 1.87391L2.12 4.00391C1.97209 4.15167 1.87421 4.34208 1.84013 4.54837C1.80605 4.75465 1.83748 4.96642 1.93 5.15391L2.82 6.93391L0.930003 7.56391C0.732996 7.63045 0.561629 7.75674 0.439751 7.92522C0.317874 8.09369 0.251548 8.29598 0.250003 8.50391V11.5039C0.249462 11.7136 0.314822 11.9181 0.436845 12.0885C0.558868 12.259 0.731382 12.3868 0.930003 12.4539L2.82 13.0839L1.93 14.8639C1.83978 15.0502 1.80961 15.2599 1.84364 15.4641C1.87767 15.6683 1.97423 15.8569 2.12 16.0039L4.25 18.1339C4.39777 18.2818 4.58818 18.3797 4.79446 18.4138C5.00074 18.4479 5.21251 18.4164 5.4 18.3239L7.18 17.4339L7.81 19.3239C7.87709 19.5225 8.0049 19.695 8.17537 19.8171C8.34585 19.9391 8.55036 20.0045 8.76 20.0039H11.76C11.9696 20.0045 12.1742 19.9391 12.3446 19.8171C12.5151 19.695 12.6429 19.5225 12.71 19.3239L13.34 17.4339L15.12 18.3239C15.3051 18.4119 15.5128 18.4408 15.7149 18.4068C15.917 18.3728 16.1038 18.2776 16.25 18.1339L18.38 16.0039C18.5279 15.8561 18.6258 15.6657 18.6599 15.4595C18.694 15.2532 18.6625 15.0414 18.57 14.8539L17.68 13.0739L19.57 12.4439C19.767 12.3774 19.9384 12.2511 20.0603 12.0826C20.1821 11.9141 20.2485 11.7118 20.25 11.5039V8.50391C20.2505 8.29427 20.1852 8.08975 20.0632 7.91928C19.9411 7.74881 19.7686 7.621 19.57 7.55391ZM18.25 10.7839L17.05 11.1839C16.7741 11.2734 16.5209 11.4219 16.3081 11.619C16.0952 11.8161 15.9278 12.0572 15.8175 12.3255C15.7071 12.5938 15.6564 12.8829 15.669 13.1727C15.6815 13.4625 15.7569 13.7461 15.89 14.0039L16.46 15.1439L15.36 16.2439L14.25 15.6439C13.9936 15.5161 13.7127 15.445 13.4263 15.4352C13.14 15.4254 12.8549 15.4773 12.5903 15.5873C12.3258 15.6973 12.0879 15.8628 11.8929 16.0727C11.6979 16.2826 11.5503 16.532 11.46 16.8039L11.06 18.0039H9.47L9.07 16.8039C8.98049 16.528 8.83203 16.2748 8.6349 16.062C8.43778 15.8491 8.19671 15.6817 7.92842 15.5714C7.66014 15.461 7.37105 15.4103 7.08123 15.4229C6.7914 15.4354 6.50777 15.5108 6.25 15.6439L5.11 16.2139L4.01 15.1139L4.61 14.0039C4.7431 13.7461 4.81852 13.4625 4.83105 13.1727C4.84357 12.8829 4.7929 12.5938 4.68254 12.3255C4.57218 12.0572 4.40478 11.8161 4.19195 11.619C3.97912 11.4219 3.72595 11.2734 3.45 11.1839L2.25 10.7839V9.22391L3.45 8.82391C3.72595 8.7344 3.97912 8.58593 4.19195 8.38881C4.40478 8.19168 4.57218 7.95062 4.68254 7.68233C4.7929 7.41404 4.84357 7.12496 4.83105 6.83513C4.81852 6.54531 4.7431 6.26167 4.61 6.00391L4.04 4.89391L5.14 3.79391L6.25 4.36391C6.50777 4.497 6.7914 4.57243 7.08123 4.58496C7.37105 4.59748 7.66014 4.54681 7.92842 4.43645C8.19671 4.32609 8.43778 4.15869 8.6349 3.94585C8.83203 3.73302 8.98049 3.47985 9.07 3.20391L9.47 2.00391H11.03L11.43 3.20391C11.5195 3.47985 11.668 3.73302 11.8651 3.94585C12.0622 4.15869 12.3033 4.32609 12.5716 4.43645C12.8399 4.54681 13.129 4.59748 13.4188 4.58496C13.7086 4.57243 13.9922 4.497 14.25 4.36391L15.39 3.79391L16.49 4.89391L15.89 6.00391C15.7622 6.26035 15.6911 6.54126 15.6813 6.8276C15.6715 7.11394 15.7234 7.39904 15.8334 7.66359C15.9434 7.92815 16.1089 8.16598 16.3188 8.36099C16.5287 8.556 16.7781 8.70364 17.05 8.79391L18.25 9.19391V10.7839ZM10.25 6.00391C9.45888 6.00391 8.68552 6.23851 8.02772 6.67803C7.36993 7.11756 6.85724 7.74227 6.55448 8.47318C6.25173 9.20408 6.17252 10.0083 6.32686 10.7843C6.4812 11.5602 6.86217 12.2729 7.42158 12.8323C7.98099 13.3917 8.69372 13.7727 9.46964 13.9271C10.2456 14.0814 11.0498 14.0022 11.7807 13.6994C12.5116 13.3967 13.1364 12.884 13.5759 12.2262C14.0154 11.5684 14.25 10.795 14.25 10.0039C14.25 8.94304 13.8286 7.92563 13.0784 7.17548C12.3283 6.42534 11.3109 6.00391 10.25 6.00391ZM10.25 12.0039C9.85444 12.0039 9.46776 11.8866 9.13886 11.6668C8.80996 11.4471 8.55362 11.1347 8.40224 10.7693C8.25087 10.4038 8.21126 10.0017 8.28843 9.61373C8.3656 9.22577 8.55608 8.8694 8.83579 8.5897C9.11549 8.30999 9.47186 8.11951 9.85982 8.04234C10.2478 7.96517 10.6499 8.00477 11.0154 8.15615C11.3808 8.30753 11.6932 8.56387 11.9129 8.89277C12.1327 9.22167 12.25 9.60835 12.25 10.0039C12.25 10.5343 12.0393 11.043 11.6642 11.4181C11.2891 11.7932 10.7804 12.0039 10.25 12.0039Z" fill="white"/>
</svg>
