<svg width="17" height="16" viewBox="0 0 17 16" fill="none" xmlns="http://www.w3.org/2000/svg">
<path d="M15.25 7.00391H9.25V1.00391C9.25 0.73869 9.14464 0.484336 8.95711 0.2968C8.76957 0.109263 8.51522 0.00390625 8.25 0.00390625C7.98478 0.00390625 7.73043 0.109263 7.54289 0.2968C7.35536 0.484336 7.25 0.73869 7.25 1.00391V7.00391H1.25C0.984784 7.00391 0.73043 7.10926 0.542893 7.2968C0.355357 7.48434 0.25 7.73869 0.25 8.00391C0.25 8.26912 0.355357 8.52348 0.542893 8.71101C0.73043 8.89855 0.984784 9.00391 1.25 9.00391H7.25V15.0039C7.25 15.2691 7.35536 15.5235 7.54289 15.711C7.73043 15.8986 7.98478 16.0039 8.25 16.0039C8.51522 16.0039 8.76957 15.8986 8.95711 15.711C9.14464 15.5235 9.25 15.2691 9.25 15.0039V9.00391H15.25C15.5152 9.00391 15.7696 8.89855 15.9571 8.71101C16.1446 8.52348 16.25 8.26912 16.25 8.00391C16.25 7.73869 16.1446 7.48434 15.9571 7.2968C15.7696 7.10926 15.5152 7.00391 15.25 7.00391Z" fill="white"/>
</svg>
