<svg width="21" height="20" viewBox="0 0 21 20" fill="none" xmlns="http://www.w3.org/2000/svg">
<path d="M5.75 14C6.14782 14 6.52936 13.842 6.81066 13.5607C7.09196 13.2794 7.25 12.8978 7.25 12.5C7.25488 12.4501 7.25488 12.3999 7.25 12.35L10.04 9.56H10.27H10.5L12.11 11.17C12.11 11.17 12.11 11.22 12.11 11.25C12.11 11.6478 12.268 12.0294 12.5493 12.3107C12.8306 12.592 13.2122 12.75 13.61 12.75C14.0078 12.75 14.3894 12.592 14.6707 12.3107C14.952 12.0294 15.11 11.6478 15.11 11.25V11.17L18.75 7.5C19.0467 7.5 19.3367 7.41203 19.5834 7.2472C19.83 7.08238 20.0223 6.84811 20.1358 6.57403C20.2493 6.29994 20.2791 5.99834 20.2212 5.70736C20.1633 5.41639 20.0204 5.14912 19.8107 4.93934C19.6009 4.72956 19.3336 4.5867 19.0426 4.52882C18.7517 4.47094 18.4501 4.50065 18.176 4.61418C17.9019 4.72771 17.6676 4.91997 17.5028 5.16664C17.338 5.41332 17.25 5.70333 17.25 6C17.2451 6.04988 17.2451 6.10012 17.25 6.15L13.64 9.76H13.48L11.75 8C11.75 7.60218 11.592 7.22064 11.3107 6.93934C11.0294 6.65804 10.6478 6.5 10.25 6.5C9.85218 6.5 9.47064 6.65804 9.18934 6.93934C8.90804 7.22064 8.75 7.60218 8.75 8L5.75 11C5.35218 11 4.97064 11.158 4.68934 11.4393C4.40804 11.7206 4.25 12.1022 4.25 12.5C4.25 12.8978 4.40804 13.2794 4.68934 13.5607C4.97064 13.842 5.35218 14 5.75 14ZM19.25 18H2.25V1C2.25 0.734784 2.14464 0.48043 1.95711 0.292893C1.76957 0.105357 1.51522 0 1.25 0C0.984784 0 0.73043 0.105357 0.542893 0.292893C0.355357 0.48043 0.25 0.734784 0.25 1V19C0.25 19.2652 0.355357 19.5196 0.542893 19.7071C0.73043 19.8946 0.984784 20 1.25 20H19.25C19.5152 20 19.7696 19.8946 19.9571 19.7071C20.1446 19.5196 20.25 19.2652 20.25 19C20.25 18.7348 20.1446 18.4804 19.9571 18.2929C19.7696 18.1054 19.5152 18 19.25 18Z" fill="white"/>
</svg>
