<svg width="21" height="20" viewBox="0 0 21 20" fill="none" xmlns="http://www.w3.org/2000/svg">
<path d="M7.75001 8.50397H10.25C10.5152 8.50397 10.7696 8.39862 10.9571 8.21108C11.1447 8.02355 11.25 7.76919 11.25 7.50397C11.25 7.23876 11.1447 6.9844 10.9571 6.79687C10.7696 6.60933 10.5152 6.50397 10.25 6.50397H9.25001V6.00397C9.25001 5.73876 9.14465 5.4844 8.95711 5.29687C8.76958 5.10933 8.51522 5.00397 8.25001 5.00397C7.98479 5.00397 7.73044 5.10933 7.5429 5.29687C7.35537 5.4844 7.25001 5.73876 7.25001 6.00397V6.55397C6.64243 6.67735 6.10237 7.02208 5.73466 7.52124C5.36696 8.0204 5.19785 8.63839 5.26015 9.25522C5.32246 9.87206 5.61174 10.4437 6.07184 10.8593C6.53194 11.2748 7.13003 11.5046 7.75001 11.504H8.75001C8.88262 11.504 9.00979 11.5567 9.10356 11.6504C9.19733 11.7442 9.25001 11.8714 9.25001 12.004C9.25001 12.1366 9.19733 12.2638 9.10356 12.3575C9.00979 12.4513 8.88262 12.504 8.75001 12.504H6.25001C5.98479 12.504 5.73044 12.6093 5.5429 12.7969C5.35537 12.9844 5.25001 13.2388 5.25001 13.504C5.25001 13.7692 5.35537 14.0235 5.5429 14.2111C5.73044 14.3986 5.98479 14.504 6.25001 14.504H7.25001V15.004C7.25001 15.2692 7.35537 15.5235 7.5429 15.7111C7.73044 15.8986 7.98479 16.004 8.25001 16.004C8.51522 16.004 8.76958 15.8986 8.95711 15.7111C9.14465 15.5235 9.25001 15.2692 9.25001 15.004V14.454C9.85758 14.3306 10.3976 13.9859 10.7654 13.4867C11.1331 12.9875 11.3022 12.3696 11.2399 11.7527C11.1776 11.1359 10.8883 10.5642 10.4282 10.1487C9.96807 9.73312 9.36998 9.50335 8.75001 9.50397H7.75001C7.6174 9.50397 7.49022 9.4513 7.39645 9.35753C7.30269 9.26376 7.25001 9.13658 7.25001 9.00397C7.25001 8.87137 7.30269 8.74419 7.39645 8.65042C7.49022 8.55665 7.6174 8.50397 7.75001 8.50397ZM19.25 10.004H16.25V1.00397C16.2507 0.827765 16.2048 0.654498 16.117 0.501721C16.0292 0.348943 15.9026 0.222079 15.75 0.133975C15.598 0.0462063 15.4255 0 15.25 0C15.0745 0 14.902 0.0462063 14.75 0.133975L11.75 1.85397L8.75001 0.133975C8.59799 0.0462063 8.42554 0 8.25001 0C8.07447 0 7.90203 0.0462063 7.75001 0.133975L4.75001 1.85397L1.75001 0.133975C1.59799 0.0462063 1.42554 0 1.25001 0C1.07447 0 0.902027 0.0462063 0.750008 0.133975C0.597404 0.222079 0.470789 0.348943 0.382986 0.501721C0.295183 0.654498 0.249308 0.827765 0.250008 1.00397V17.004C0.250008 17.7996 0.566078 18.5627 1.12869 19.1253C1.6913 19.6879 2.45436 20.004 3.25001 20.004H17.25C18.0457 20.004 18.8087 19.6879 19.3713 19.1253C19.9339 18.5627 20.25 17.7996 20.25 17.004V11.004C20.25 10.7388 20.1447 10.4844 19.9571 10.2969C19.7696 10.1093 19.5152 10.004 19.25 10.004ZM3.25001 18.004C2.98479 18.004 2.73044 17.8986 2.5429 17.7111C2.35536 17.5235 2.25001 17.2692 2.25001 17.004V2.73397L4.25001 3.87397C4.40435 3.95459 4.57589 3.99669 4.75001 3.99669C4.92413 3.99669 5.09567 3.95459 5.25001 3.87397L8.25001 2.15397L11.25 3.87397C11.4043 3.95459 11.5759 3.99669 11.75 3.99669C11.9241 3.99669 12.0957 3.95459 12.25 3.87397L14.25 2.73397V17.004C14.2527 17.3451 14.3136 17.6833 14.43 18.004H3.25001ZM18.25 17.004C18.25 17.2692 18.1447 17.5235 17.9571 17.7111C17.7696 17.8986 17.5152 18.004 17.25 18.004C16.9848 18.004 16.7304 17.8986 16.5429 17.7111C16.3554 17.5235 16.25 17.2692 16.25 17.004V12.004H18.25V17.004Z" fill="white"/>
</svg>
