<svg width="17" height="20" viewBox="0 0 17 20" fill="none" xmlns="http://www.w3.org/2000/svg">
<path d="M0.25 10.0039C0.25 10.2691 0.355357 10.5235 0.542893 10.711C0.73043 10.8985 0.984784 11.0039 1.25 11.0039H8.84L6.54 13.2939C6.44627 13.3869 6.37188 13.4975 6.32111 13.6193C6.27034 13.7412 6.2442 13.8719 6.2442 14.0039C6.2442 14.1359 6.27034 14.2666 6.32111 14.3885C6.37188 14.5103 6.44627 14.6209 6.54 14.7139C6.63296 14.8076 6.74356 14.882 6.86542 14.9328C6.98728 14.9836 7.11799 15.0097 7.25 15.0097C7.38201 15.0097 7.51272 14.9836 7.63458 14.9328C7.75644 14.882 7.86704 14.8076 7.96 14.7139L11.96 10.7139C12.051 10.6188 12.1224 10.5067 12.17 10.3839C12.27 10.1404 12.27 9.86737 12.17 9.62391C12.1224 9.50115 12.051 9.38901 11.96 9.29391L7.96 5.29391C7.86676 5.20067 7.75607 5.12671 7.63425 5.07625C7.51243 5.02579 7.38186 4.99981 7.25 4.99981C7.11814 4.99981 6.98757 5.02579 6.86575 5.07625C6.74393 5.12671 6.63324 5.20067 6.54 5.29391C6.44676 5.38714 6.3728 5.49784 6.32234 5.61966C6.27188 5.74148 6.24591 5.87205 6.24591 6.00391C6.24591 6.13577 6.27188 6.26633 6.32234 6.38816C6.3728 6.50998 6.44676 6.62067 6.54 6.71391L8.84 9.00391H1.25C0.984784 9.00391 0.73043 9.10926 0.542893 9.2968C0.355357 9.48434 0.25 9.73869 0.25 10.0039ZM13.25 0.00390625H3.25C2.45435 0.00390625 1.69129 0.319977 1.12868 0.882586C0.566071 1.4452 0.25 2.20826 0.25 3.00391V6.00391C0.25 6.26912 0.355357 6.52348 0.542893 6.71101C0.73043 6.89855 0.984784 7.00391 1.25 7.00391C1.51522 7.00391 1.76957 6.89855 1.95711 6.71101C2.14464 6.52348 2.25 6.26912 2.25 6.00391V3.00391C2.25 2.73869 2.35536 2.48434 2.54289 2.2968C2.73043 2.10926 2.98478 2.00391 3.25 2.00391H13.25C13.5152 2.00391 13.7696 2.10926 13.9571 2.2968C14.1446 2.48434 14.25 2.73869 14.25 3.00391V17.0039C14.25 17.2691 14.1446 17.5235 13.9571 17.711C13.7696 17.8986 13.5152 18.0039 13.25 18.0039H3.25C2.98478 18.0039 2.73043 17.8986 2.54289 17.711C2.35536 17.5235 2.25 17.2691 2.25 17.0039V14.0039C2.25 13.7387 2.14464 13.4843 1.95711 13.2968C1.76957 13.1093 1.51522 13.0039 1.25 13.0039C0.984784 13.0039 0.73043 13.1093 0.542893 13.2968C0.355357 13.4843 0.25 13.7387 0.25 14.0039V17.0039C0.25 17.7996 0.566071 18.5626 1.12868 19.1252C1.69129 19.6878 2.45435 20.0039 3.25 20.0039H13.25C14.0456 20.0039 14.8087 19.6878 15.3713 19.1252C15.9339 18.5626 16.25 17.7996 16.25 17.0039V3.00391C16.25 2.20826 15.9339 1.4452 15.3713 0.882586C14.8087 0.319977 14.0456 0.00390625 13.25 0.00390625Z" fill="white"/>
</svg>
